<svg width="18" height="35" viewBox="0 0 18 35" fill="none" xmlns="http://www.w3.org/2000/svg">
<path d="M14.5937 35.0031C14.2202 35.0044 13.8512 34.922 13.5138 34.7619C13.1763 34.6018 12.879 34.3682 12.6437 34.0781L0.56872 19.0781C0.201016 18.6308 0 18.0697 0 17.4906C0 16.9116 0.201016 16.3505 0.56872 15.9031L13.0687 0.903131C13.4931 0.392589 14.1028 0.0715281 14.7639 0.0105787C15.425 -0.0503706 16.0832 0.153784 16.5937 0.578131C17.1043 1.00248 17.4253 1.61226 17.4863 2.27332C17.5472 2.93439 17.3431 3.59259 16.9187 4.10313L5.74372 17.5031L16.5437 30.9031C16.8494 31.2701 17.0436 31.7169 17.1033 32.1908C17.163 32.6647 17.0857 33.1457 16.8806 33.5771C16.6754 34.0084 16.351 34.3719 15.9458 34.6246C15.5405 34.8774 15.0713 35.0087 14.5937 35.0031Z" fill="#292929"/>
</svg>
